<svg xmlns="http://www.w3.org/2000/svg" viewBox="0 0 100 100" width="100" height="100" fill="black">
  <path d="M28 15 
           L50 37 
           L72 15 
           Q76 11, 81 15 
           L85 19 
           Q89 24, 85 28 
           L63 50 
           L85 72 
           Q89 76, 85 81 
           L81 85 
           Q76 89, 72 85 
           L50 63 
           L28 85 
           Q24 89, 19 85 
           L15 81 
           Q11 76, 15 72 
           L37 50 
           L15 28 
           Q11 24, 15 19 
           L19 15 
           Q24 11, 28 15 Z" />
</svg>
